<?xml version="1.0" encoding="utf-8"?>
<svg viewBox="303.923 166.684 115.619 66.317" xmlns="http://www.w3.org/2000/svg" xmlns:bx="https://boxy-svg.com">
  <path style="stroke-width: 0px; paint-order: stroke; stroke: rgb(255, 255, 255); fill: rgb(255, 255, 255);" transform="matrix(0.766044, -0.642788, 0.642788, 0.766044, 158.961871, 99.417162)" tabindex="0" d="M 46.531 174.508 H 51.531 V 209.008 A 2.5 2.5 0 0 1 49.031 211.508 H 49.031 A 2.5 2.5 0 0 1 46.531 209.008 V 174.508 Z" bx:origin="0.80626 0.536712" bx:shape="rect 46.531 174.508 5 37 0 0 2.5 2.5 1@e1d180d1"/>
  <path style="stroke-width: 0px; paint-order: stroke; stroke: rgb(255, 255, 255); fill: rgb(255, 255, 255);" transform="matrix(0.766044, 0.642788, -0.642788, 0.766044, 407.083319, 4.409637)" tabindex="0" d="M 49.031 174.508 H 49.031 A 2.5 2.5 0 0 1 51.531 177.008 V 211.508 H 46.531 V 177.008 A 2.5 2.5 0 0 1 49.031 174.508 Z" bx:shape="rect 46.531 174.508 5 37 2.5 2.5 0 0 1@92c8a3d3"/>
  <path d="M -126.277 -138.943 Q -122.893 -141.726 -119.51 -138.943 L -119.51 -138.943 Q -116.127 -136.16 -122.893 -136.16 L -122.893 -136.16 Q -129.66 -136.16 -126.277 -138.943 Z" style="stroke: rgb(255, 255, 255); fill: rgb(255, 255, 255);" transform="matrix(0, -1, 1, 0, 446.33451, 76.828736)" tabindex="0" bx:shape="triangle -129.66 -141.726 13.533 5.566 0.5 0.5 1@ce4763c9"/>
  <path style="stroke-width: 0px; paint-order: stroke; stroke: rgb(255, 255, 255); fill: rgb(255, 255, 255);" transform="matrix(-0.766044, 0.642788, -0.642788, -0.766044, 563.429818, 300.114842)" tabindex="0" d="M 46.531 174.508 H 51.531 V 209.008 A 2.5 2.5 0 0 1 49.031 211.508 H 49.031 A 2.5 2.5 0 0 1 46.531 209.008 V 174.508 Z" bx:origin="0.80626 0.536712" bx:shape="rect 46.531 174.508 5 37 0 0 2.5 2.5 1@e1d180d1"/>
  <path style="stroke-width: 0px; paint-order: stroke; stroke: rgb(255, 255, 255); fill: rgb(255, 255, 255);" transform="matrix(-0.766044, -0.642788, 0.642788, -0.766044, 315.308324, 395.122381)" tabindex="0" d="M 49.031 174.508 H 49.031 A 2.5 2.5 0 0 1 51.531 177.008 V 211.508 H 46.531 V 177.008 A 2.5 2.5 0 0 1 49.031 174.508 Z" bx:shape="rect 46.531 174.508 5 37 2.5 2.5 0 0 1@92c8a3d3"/>
  <path d="M -126.277 -138.943 Q -122.893 -141.726 -119.51 -138.943 L -119.51 -138.943 Q -116.127 -136.16 -122.893 -136.16 L -122.893 -136.16 Q -129.66 -136.16 -126.277 -138.943 Z" style="stroke: rgb(255, 255, 255); fill: rgb(255, 255, 255);" transform="matrix(0, 1, -1, 0, 276.057133, 322.703282)" tabindex="0" bx:shape="triangle -129.66 -141.726 13.533 5.566 0.5 0.5 1@ce4763c9"/>
  <rect style="stroke-width: 0px; paint-order: stroke; stroke: rgb(255, 255, 255); fill: rgb(255, 255, 255);" transform="matrix(0.848048, 0.52992, -0.52992, 0.848048, 518.645516, -144.639681)" tabindex="0" x="46.531" y="339.583" width="5" height="72" rx="2.5" ry="2.5"/>
</svg>