<?xml version="1.0" encoding="utf-8"?>
<svg viewBox="302.18 168.634 85.744 28.533" xmlns="http://www.w3.org/2000/svg" xmlns:bx="https://boxy-svg.com">
  <path style="stroke-width: 0px; paint-order: stroke; stroke: rgb(255, 255, 255); fill: rgb(255, 255, 255);" transform="matrix(0.766044, -0.642788, 0.642788, 0.766044, 243.343025, 141.067051)" tabindex="0" d="M 19.067 71.508 H 21.116 V 85.67 A 1 1 0 0 1 20.116 86.67 H 20.067 A 1 1 0 0 1 19.067 85.67 V 71.508 Z" bx:origin="0.80626 0.536712" bx:shape="rect 19.067 71.508 2.049 15.162 0 0 1 1 1@784f7a61"/>
  <path style="stroke-width: 0px; paint-order: stroke; stroke: rgb(255, 255, 255); fill: rgb(255, 255, 255);" transform="matrix(0.766044, 0.642788, -0.642788, 0.766044, 344.125102, 104.568095)" tabindex="0" d="M 19.612 69.798 H 19.612 A 1 1 0 0 1 20.612 70.798 V 84.598 H 18.612 V 70.798 A 1 1 0 0 1 19.612 69.798 Z" bx:shape="rect 18.612 69.798 2 14.8 1 1 0 0 1@f920ff22"/>
  <path d="M -34.295 -41.077 Q -33.376 -41.9 -32.458 -41.077 L -32.458 -41.077 Q -31.539 -40.255 -33.376 -40.255 L -33.376 -40.255 Q -35.214 -40.255 -34.295 -41.077 Z" style="stroke: rgb(255, 255, 255); fill: rgb(255, 255, 255);" transform="matrix(0, -1, 1, 0, 345.48881, 149.181279)" tabindex="0" bx:shape="triangle -35.214 -41.9 3.675 1.645 0.5 0.5 1@3c74f1a3"/>
  <rect style="stroke-width: 0px; paint-order: stroke; stroke: rgb(255, 255, 255); fill: rgb(255, 255, 255);" transform="matrix(0.848048, 0.52992, -0.52992, 0.848048, 418.07063, 62.181303)" tabindex="0" x="18.538" y="117.912" width="1.992" height="25" rx="1" ry="1"/>
  <path style="stroke-width: 0px; paint-order: stroke; stroke: rgb(255, 255, 255); fill: rgb(255, 255, 255);" transform="matrix(-0.766044, 0.642788, -0.642788, -0.766044, 446.420515, 224.136985)" tabindex="0" d="M 19.067 71.508 H 21.116 V 85.67 A 1 1 0 0 1 20.116 86.67 H 20.067 A 1 1 0 0 1 19.067 85.67 V 71.508 Z" bx:origin="0.80626 0.536712" bx:shape="rect 19.067 71.508 2.049 15.162 0 0 1 1 1@784f7a61"/>
  <path style="stroke-width: 0px; paint-order: stroke; stroke: rgb(255, 255, 255); fill: rgb(255, 255, 255);" transform="matrix(-0.766044, -0.642788, 0.642788, -0.766044, 345.638408, 260.635964)" tabindex="0" d="M 19.612 69.798 H 19.612 A 1 1 0 0 1 20.612 70.798 V 84.598 H 18.612 V 70.798 A 1 1 0 0 1 19.612 69.798 Z" bx:shape="rect 18.612 69.798 2 14.8 1 1 0 0 1@f920ff22"/>
  <path d="M -34.295 -41.077 Q -33.376 -41.9 -32.458 -41.077 L -32.458 -41.077 Q -31.539 -40.255 -33.376 -40.255 L -33.376 -40.255 Q -35.214 -40.255 -34.295 -41.077 Z" style="stroke: rgb(255, 255, 255); fill: rgb(255, 255, 255);" transform="matrix(0, 1, -1, 0, 344.274699, 216.022757)" tabindex="0" bx:shape="triangle -35.214 -41.9 3.675 1.645 0.5 0.5 1@3c74f1a3"/>
  <rect style="stroke-width: 0px; paint-order: stroke; stroke: rgb(255, 255, 255); fill: rgb(255, 255, 255);" transform="matrix(-1, -0.000001, 0.000001, -1, 341.28892, 287.330026)" tabindex="0" x="18.538" y="94.33" width="1.992" height="20" rx="1" ry="1"/>
  <rect style="stroke-width: 0px; paint-order: stroke; stroke: rgb(255, 255, 255); fill: rgb(255, 255, 255);" transform="matrix(-1, -0.000001, 0.000001, -1, 351.529918, 287.330026)" tabindex="0" x="18.538" y="94.33" width="1.992" height="20" rx="1" ry="1"/>
  <rect style="stroke-width: 0px; paint-order: stroke; stroke: rgb(255, 255, 255); fill: rgb(255, 255, 255);" transform="matrix(-0.000001, 1, -1, -0.000001, 378.964733, 163.262532)" tabindex="0" x="18.538" y="47.166" width="1.992" height="10" rx="1" ry="1"/>
  <rect style="stroke-width: 0px; paint-order: stroke; stroke: rgb(255, 255, 255); fill: rgb(255, 255, 255);" transform="matrix(-1, -0.000001, 0.000001, -1, 357.063274, 285.437722)" tabindex="0" x="18.538" y="92.438" width="1.992" height="19.599" rx="1" ry="1"/>
  <rect style="stroke-width: 0px; paint-order: stroke; stroke: rgb(255, 255, 255); fill: rgb(255, 255, 255);" transform="matrix(-1, -0.000001, 0.000001, -1, 370.784557, 285.437661)" tabindex="0" x="18.538" y="92.439" width="1.992" height="19.599" rx="1" ry="1"/>
  <rect style="stroke-width: 0px; paint-order: stroke; stroke: rgb(255, 255, 255); fill: rgb(255, 255, 255);" transform="matrix(0.632394, 0.774647, -0.645457, 0.790645, 374.530773, 112.004802)" tabindex="0" x="20.728" y="56.837" width="2.227" height="12.051" rx="1" ry="1"/>
  <rect style="stroke-width: 0px; paint-order: stroke; stroke: rgb(255, 255, 255); fill: rgb(255, 255, 255);" transform="matrix(0.632395, -0.774646, 0.645456, 0.790646, 286.68699, 146.116978)" tabindex="0" x="20.728" y="56.838" width="2.227" height="12.051" rx="1" ry="1"/>
</svg>